<?xml version="1.0" encoding="UTF-8"?>
<!-- Created with Inkscape (http://www.inkscape.org/) -->
<svg width="210mm" height="297mm" version="1.1" viewBox="0 0 210 297" xmlns="http://www.w3.org/2000/svg">
 <g transform="translate(156.93 -76.311)">
  <path d="m-18.429 135.91a31.289 31.382 0 0 1-31.219 31.382 31.289 31.382 0 0 1-31.358-31.242 31.289 31.382 0 0 1 31.08-31.52 31.289 31.382 0 0 1 31.496 31.102" fill="#95c11f" fill-rule="evenodd"/>
  <path d="m-47.036 154.44c1.2207-1.7421-0.91522-4.0821-0.7292-6.1065-0.45993-3.6274-0.30678-7.8922 2.4541-10.634 1.7166-1.9403 2.8238-4.3269 3.8537-6.668 2.0044-1.4513 4.5243-1.8255 6.9286-2.0334 2.0844-1.3273-0.81486-2.7255-2.224-1.9164-1.3147-0.21989-3.6061 1.4778-4.2055 0.7446 0.17401-2.4345 0.34147-4.9292-0.07089-7.3431-1.8902-1.9848-2.2817 1.651-1.8931 3.0049-0.0018 3.3185-0.14071 6.8314-1.9477 9.7331-0.5249 1.1579-1.236 2.4185-1.6645 0.51605-1.068-1.8485-2.8521-3.3462-4.9191-3.9117-2.3171 0.48809-0.27473 2.5392 1.0572 2.8215 1.4856 0.98293 2.6316 2.7819 2.6286 4.5466-2.9819 4.2285-2.7496 9.8368-1.4617 14.628 0.38166 0.9974 0.53524 3.4341 2.1935 2.6184zm-0.85408 0.0488c-1.3744-1.3346-1.354-3.5699-1.8344-5.3526-0.70151-4.0498-0.38163-8.5735 2.1131-11.987-0.22482-2.503-2.0652-4.5586-4.355-5.4622-1.6051-1.4434 1.1726-2.3915 2.1261-1.1154 1.8389 0.93901 3.0473 2.7808 3.928 4.4869 1.7456-2.3839 2.8518-5.2556 2.9688-8.2272 0.23102-2.0301 0.0238-4.0714 0.06449-6.1023 1.0096-2.0661 2.5033 0.53943 1.9572 1.8523 0.03037 1.9166-0.01049 3.8392-0.11431 5.7482 2.0811-0.7343 4.3357-1.4672 6.5843-1.2172 1.8518 1.6778-1.3803 2.1622-2.5855 2.1008-1.9874 0.45571-4.7018 0.94851-5.1852 3.3031-1.0459 2.3578-2.4675 4.5225-4.2251 6.4074-2.0707 3.4632-1.8753 7.7955-0.97525 11.596 0.02826 1.214 1.997 4.0959-0.46723 3.9693zm0.96835-0.36314c0.24619-2.2816-1.2485-4.568-1.1778-6.9473-0.31995-3.5244 0.23173-7.4891 2.9868-9.9908 1.5859-1.873 2.4818-4.2037 3.5789-6.3506 2.0419-1.4418 4.572-1.8169 6.9953-2.0544 1.7067-1.5018-1.2376-2.0233-2.3971-1.4727-1.3598-0.14973-3.4545 1.4743-4.2408 0.82153 0.18709-2.5024 0.37567-5.0476-0.0226-7.5367-1.8543-1.7173-1.6918 1.7523-1.544 2.9147 0.04536 3.3787-0.16692 6.926-1.9923 9.8775-0.44614 1.0255-1.4289 2.7615-1.8248 0.72961-0.98372-1.9565-2.8082-3.486-4.8977-4.1217-2.4867 1.1736 1.2055 2.2426 2.0325 3.1944 1.4238 1.3426 2.6111 3.7511 1.0019 5.4005-2.2059 4.4688-1.6943 9.7587-0.28098 14.388 0.16154 0.875 0.8328 1.9654 1.7827 1.1482zm-5.4133 0.0586c1.041-1.8702 1.1831-4.1175 1.535-6.2025 0.50415-3.9756-0.04069-8.1451-2.0721-11.647-0.90256-1.8916-1.6756-3.86-2.1283-5.91 1.5323-1.2176 3.1667-2.3807 4.445-3.9024 2.0965-2.3281 3.7937-5.1842 4.2739-8.3101-0.76603-2.4215-2.6401 0.15391-2.6259 1.6126-1.191 3.3255-3.6316 6.0738-6.4461 8.1382-0.49682-3.0572 0.31608-6.1393 1.1597-9.061-0.37445-2.2243-2.716-0.50158-2.521 1.0746-1.4612 4.7446-1.061 9.9071 0.69579 14.515 0.70704 1.7443-0.40171-1.4802-0.551-1.9654-1.3944-4.6016-1.2857-9.7026 0.53216-14.169 1.5434-1.548 2.2145 1.1272 1.2903 2.2183-0.65144 2.411-1.1161 4.9962-0.65642 7.473 3.4792-2.3662 6.1935-5.9598 7.1954-10.084 1.2254-1.9581 2.5276 0.84704 1.4336 2.0363-1.3938 4.2399-4.5055 7.7096-8.1411 10.196-0.1589 1.8296 1.0319 3.8265 1.7039 5.6066 1.4029 2.6234 2.4995 5.4849 2.454 8.5053 0.05262 3.2627-0.32051 6.604-1.4856 9.6637-2.0915 1.4411-1.759-1.8642-1.1401-3.0706 0.8384-3.9502 1.1542-8.292-0.55467-12.062-2.5398-1.6479-5.0585-3.4801-6.7941-6.0186-1.002-1.681-2.0268-3.6187-4.1836-3.9042-1.5107 0.29389-3.7285-1.6348-1.3504-2.2045 1.1749-0.0843 3.5248 1.3244 2.4909-0.84753-0.77167-1.2034 0.08246-4.0414 1.577-2.3236 0.51709 4.3505 2.6012 8.543 6.0306 11.326-0.84819-0.87032-3.1957-3.1581-3.9659-5.0179-1.0725-1.9331-1.6671-4.0881-1.9531-6.2664-1.2983-1.9294-2.7551 0.76452-1.8126 2.1102 1.3601 2.9561-2.7238-0.4035-3.4746 1.6329-0.1187 2.2553 3.2585 1.1509 4.4115 2.5276 1.4211 1.3705 2.092 3.3456 3.5398 4.7183 1.5111 1.777 3.544 2.979 5.3975 4.3211 1.6213 3.2988 1.2834 7.1445 0.83356 10.678 0.11746 1.524-2.0607 4.3277 0.20931 4.8904l0.35158-0.0498 0.29621-0.22629zm9.2737 0.15105c1.2527-1.9199-1.4913-4.2292-1.0432-6.5035-0.44578-1.9801 0.72946-3.8271 2.6326-4.4166 2.7712-1.1022 6.2482 0.54816 7.1777 3.3841 1.8246 1.9084 2.5138-1.6523 0.99338-2.6553-1.8785-2.6869-5.5334-3.7892-8.6423-2.9242 2.5588-3.3619 7.1883-4.9996 11.258-3.7547 2.2995 0.24998 1.1461-2.7605-0.66968-2.3446-6.4043-1.2874-13.164 3.2656-14.657 9.5676-0.62051 3.1517-0.07487 6.5389 1.5558 9.312 0.27675 0.4759 0.93089 0.58459 1.3946 0.33527zm-1.0628-0.1128c-1.6591-2.3559-2.2557-5.4259-1.9902-8.2795 0.75329-7.1188 8.5839-12.497 15.495-10.557 2.3202 0.32037 0.65211 3.0719-1.0392 1.7696-3.8989-0.82914-8.1042 0.99847-10.453 4.1458 2.2429-0.51318 4.7377-0.3182 6.7251 0.96252 1.4185 0.9845 2.7977 2.4632 2.9517 4.2519-1.6704 2.2739-2.2696-1.8003-3.7847-2.4304-2.1508-1.5435-5.3905-1.4922-7.2209 0.55679-1.467 1.7285-0.61364 4.3496-0.13699 6.3235 0.40826 1.0548 2.0349 3.9431-0.54703 3.257zm0.9631-0.0487c0.93645-1.8862-1.5394-4.1256-1.1398-6.3582-0.43679-2.0233 0.77982-3.8726 2.6822-4.5552 2.8882-1.1648 6.5489 0.50601 7.511 3.4965 1.7129 1.4395 1.9224-1.5586 0.73633-2.3873-1.8125-2.7307-5.5429-3.849-8.6302-2.9059-0.12162-1.0596 2.4535-2.8352 3.8019-3.5237 2.3632-1.1496 5.1476-1.433 7.6631-0.62843 2.3319-0.41216-0.12283-2.4944-1.5252-2.111-6.8542-0.97544-13.906 4.7616-14.02 11.747-0.0011 2.4794 0.58037 5.0785 1.9632 7.1489 0.25737 0.23623 0.66329 0.24983 0.95712 0.0775zm-9.4041-0.0115c0.90516-1.336 0.98919-3.0898 1.3487-4.6457 0.70099-4.2845 0.56522-8.9253-1.6675-12.771-0.9455-2.0829-2.0199-4.233-2.2583-6.5199 4.1328-2.7604 7.6537-6.8595 8.6626-11.832-0.08296-1.9662-2.2783-0.52617-2.0207 0.87167-1.1829 3.646-3.7609 6.7859-6.9085 8.9177-0.50651-1.8324-0.17047-4.0853 0.13528-6.028 0.08227-1.2176 2.0657-4.5544-0.48302-3.9649-1.0547 1.8596-1.3592 4.1068-1.5858 6.2195-0.3132 3.7149 0.43675 7.4411 1.8323 10.878-1.5572-0.68225-2.7573-2.3127-3.8027-3.6972-1.6601-2.3278-2.5744-5.0975-2.9645-7.9098-1.3452-1.779-2.1465 1.15-1.3748 2.2667 1.5291 3.245-4.0199-1.026-3.5057 2.0886 1.3706 1.0033 3.6288 0.61285 4.8346 2.1188 1.7637 3.087 4.1092 5.919 7.2082 7.7431 1.9802 0.76869 2.04 3.2145 2.3973 4.9983 0.37928 3.5822-0.27684 7.1717-1.1671 10.624 0.07781 0.54839 0.82933 1.0182 1.3197 0.64172zm-3.7883-0.16594c1.2758-1.6301 1.5483-3.93 1.6609-5.9632-0.07103-3.6307-1.5877-7.2418-4.0333-9.9136-2.749-2.7251-6.9454-3.6586-10.688-3.0836-1.2054 0.41293-0.46468 2.356 0.68001 1.9865 3.4882-0.16035 7.4537 0.7062 9.4979 3.8085 0.33871 0.97022-2.4072-0.30119-3.3585 0.18735-2.1948 0.30397-4.3908 1.7377-5.2439 3.8214 0.34075 2.3185 2.4723 0.37147 3.1849-0.67884 2.0529-1.6842 5.5883-1.3258 7.1966 0.79728 1.1232 2.4214 0.52399 5.2337-0.35433 7.6377-0.46853 0.91655 0.55114 1.9148 1.4579 1.4005zm-1.0294-0.0832c-1.157-1.3365 0.70644-3.093 0.54402-4.6901 0.16367-1.9569 0.18198-4.5398-1.9035-5.5144-2.3098-1.2471-5.5346-0.79956-7.0237 1.4883-1.1419 1.9468-3.0209-0.60141-1.2365-1.5962 1.7553-2.2164 4.8236-3.083 7.5115-2.2914 1.4884-0.0195-1.377-2.4538-2.279-2.9474-2.2905-1.4283-5.0694-1.3827-7.6595-1.5012-1.8052-2.117 2.2669-2.1648 3.5816-1.8112 3.6018 0.2844 7.0798 2.2536 8.831 5.4707 2.1539 3.529 2.9569 8.0006 1.4242 11.927-0.26138 0.7925-0.71033 2.0209-1.7903 1.4654zm0.93666-0.082c1.1055-1.5296 1.4222-3.5594 1.5003-5.4211 0.19019-3.5234-1.3401-6.9591-3.4688-9.6889-2.6523-3.047-6.9689-3.9781-10.843-3.5258-1.8053 1.3669 1.0194 1.9958 2.1495 1.6542 3.2884 0.0631 6.9878 1.4827 8.4052 4.6454-1.5779-0.16619-3.3198-0.6033-4.9222-0.057-1.7005 0.61399-3.5407 1.7954-4.0343 3.6218 1.3957 2.1461 2.635-1.8888 4.422-1.919 2.3882-0.69417 5.8698 0.15383 6.4024 2.941 0.58474 2.3834-0.19314 4.7587-0.87621 7.0157-0.04277 0.66293 0.71254 1.072 1.2653 0.73371z" fill="#fff" stroke-width=".084667"/>
 </g>
 <g transform="matrix(.51144 0 0 .51144 263.97 -220.97)" style="shape-inside:url(#rect11418);white-space:pre" aria-label="Green Ways">
  <path d="m-414.12 650.98c0 7.9688 5.7227 13.32 13.711 13.32 3.2422 0 6.2695-0.9375 8.7305-1.9336 0.50781-0.19531 0.91797-0.80078 0.91797-1.3477v-0.0195l-0.0781-9.8047c0-0.80078-0.66406-1.4453-1.4648-1.4453h-7.9102c-0.80078 0-1.4648 0.66406-1.4648 1.4648 0 0.80079 0.66406 1.4648 1.4648 1.4648h6.4453l0.0586 7.3242c-1.9141 0.68359-4.3945 1.3476-6.8359 1.3476-6.3281 0-10.684-4.1992-10.684-10.449 0-6.0742 4.5703-11.055 10.918-11.055 2.7734 0 5.5469 0.9375 7.6562 2.4219 0.21485 0.15625 0.60547 0.27344 0.85938 0.27344 0.80078 0 1.4648-0.66406 1.4648-1.4648 0-0.42969-0.29297-0.97657-0.64453-1.2109-2.6953-1.9141-5.6445-2.9688-9.4336-2.9688-8.1445 0-13.711 6.5039-13.711 14.082z"/>
  <path d="m-374.14 645.86c0-1.4648-1.6602-1.8945-3.6523-1.8945-2.1289 0-4.3555 2.0703-4.8828 3.8477l-0.17578-2.1484c0-0.97656-0.52734-1.6211-1.2891-1.6211-0.74219 0-1.5039 0.66406-1.5039 1.6211v17.324c0 0.82031 0.48828 1.4844 1.4648 1.4844 0.97656 0 1.4648-0.66406 1.4648-1.4844v-10.645c0-2.832 1.1914-5.625 5.0195-5.625 1.0156 0 1.6211 0.5664 2.4414 0.5664 0.54687 0 1.1133-0.72265 1.1133-1.4258z"/>
  <path d="m-362.86 664.4c2.9492 0 5.8203-1.3281 7.6953-3.6328 0.19532-0.23438 0.35157-0.66407 0.35157-0.95704 0-0.80078-0.66407-1.4648-1.4648-1.4648-0.39062 0-0.91797 0.25391-1.1523 0.56641-1.2891 1.582-3.418 2.5586-5.4688 2.5586-3.6328 0-6.4062-2.8125-7.0117-6.0547h14.219c1.1523 0 1.5039-0.97656 1.5039-2.1875 0-5.0781-4.1992-9.1602-9.1602-9.1602-5.3906 0-9.6289 4.6484-9.6289 10 0 5.625 4.4531 10.332 10.117 10.332zm5.6836-11.875h-12.695c0.64453-2.9883 3.2031-5.5274 6.543-5.5274 3.2031 0 5.7812 2.4805 6.1524 5.5274z"/>
  <path d="m-340.16 664.4c2.9492 0 5.8203-1.3281 7.6953-3.6328 0.19531-0.23438 0.35156-0.66407 0.35156-0.95704 0-0.80078-0.66406-1.4648-1.4648-1.4648-0.39063 0-0.91797 0.25391-1.1524 0.56641-1.2891 1.582-3.418 2.5586-5.4688 2.5586-3.6328 0-6.4062-2.8125-7.0117-6.0547h14.219c1.1524 0 1.5039-0.97656 1.5039-2.1875 0-5.0781-4.1992-9.1602-9.1602-9.1602-5.3906 0-9.6289 4.6484-9.6289 10 0 5.625 4.4531 10.332 10.117 10.332zm5.6836-11.875h-12.695c0.64453-2.9883 3.2031-5.5274 6.543-5.5274 3.2031 0 5.7812 2.4805 6.1524 5.5274z"/>
  <path d="m-325.73 643.95c-0.83985 0-1.4648 0.66406-1.4648 1.4844l0.0195 17.539c0 0.82031 0.64453 1.4844 1.4648 1.4844 0.80078 0 1.4648-0.66406 1.4648-1.4648v-9.5703c0-4.1211 2.1875-6.4844 6.4258-6.4844 3.3789 0 4.2383 3.0859 4.2383 6.543l-0.0195 9.4531c0 0.82032 0.64454 1.4844 1.4648 1.4844 0.80078 0 1.4648-0.66406 1.4648-1.4648l0.0195-9.4727c0-4.9805-1.9922-9.4727-7.168-9.4727-2.9883 0-5.0586 2.0312-6.4453 3.7305l-0.0976-2.3242c0-0.80078-0.56641-1.4648-1.3672-1.4648z"/>
  <path d="m-281.86 637.95-6.4258 20.293-6.4062-20.234c-0.17578-0.56641-0.80078-1.0547-1.4062-1.0547-0.80078 0-1.4648 0.66406-1.4648 1.4648 0 0.13671 0.0391 0.35156 0.0781 0.46875l7.8125 24.59c0.17578 0.56641 0.80078 1.0156 1.3867 1.0156 0.58594 0 1.2305-0.44921 1.4062-1.0156l6.4062-20.273 6.4258 20.273c0.17578 0.56641 0.80078 1.0156 1.3867 1.0156 0.58594 0 1.2305-0.44921 1.4062-1.0156l7.8125-24.531c0.0391-0.11719 0.0781-0.33203 0.0781-0.46875 0-0.80078-0.66406-1.4648-1.4648-1.4648-0.60547 0-1.2305 0.46875-1.4062 1.0352l-6.4258 20.195-6.4062-20.293c-0.17578-0.56641-0.82031-1.0156-1.4062-1.0156-0.60546 0-1.2109 0.46875-1.3867 1.0156z"/>
  <path d="m-251.88 643.99c-5.4688 0-9.5508 4.9024-9.5508 10.234 0 5.3516 4.1016 10.176 9.4531 10.176 2.5976 0 5.0586-1.7969 6.7773-3.6719v2.2266c0 0.76171 0.60547 1.3672 1.3672 1.3672s1.3672-0.60547 1.3672-1.3672v-17.656c0-0.76172-0.60547-1.3672-1.3672-1.3672s-1.1914 0.625-1.1914 1.3672l-0.17578 2.4609c-1.6602-1.7969-3.8867-3.7695-6.6797-3.7695zm6.7774 10.117c0 3.8086-3.1445 7.3633-6.875 7.3633-3.7109 0-6.5234-3.4961-6.5234-7.2461 0-3.7891 2.832-7.3047 6.6406-7.3047 3.75 0 6.7578 3.418 6.7578 7.1875z"/>
  <path d="m-237.68 643.97c-0.80078 0-1.4648 0.66406-1.4648 1.4648 0 0.17579 0.0586 0.46875 0.13672 0.64454l8.2812 17.871c-1.1328 2.8906-2.1094 6.8555-5.6836 7.0898-0.76171 0.0391-1.3867 0.70313-1.3867 1.4648 0 0.80078 0.66406 1.4648 1.4648 1.4648 3.9258 0 6.1719-3.5352 7.3047-6.3477l8.6133-21.602c0.39062-1.0156-0.33203-2.0312-1.3477-2.0312-0.5664 0-1.1719 0.42969-1.3672 0.9375l-6.0938 15.312-7.1289-15.41c-0.21485-0.46875-0.78125-0.85938-1.3281-0.85938z"/>
  <path d="m-207.72 643.89c-4.082 0-8.9453 1.8164-8.9453 6.1719 0 3.9062 3.8867 4.8633 7.2266 5.2539 2.4805 0.29297 7.7539 0.11718 7.7539 2.832 0 2.5976-3.2812 3.457-5.957 3.457-3.125 0-5.5469-0.95703-6.6602-3.1055-0.21484-0.42969-0.78125-0.78125-1.2695-0.78125-0.78125 0-1.4062 0.625-1.4062 1.4062 0 0.19531 0.0586 0.48828 0.15625 0.66406 1.5625 3.0469 5.1172 4.6484 9.1797 4.6484 4.3164 0 8.7695-1.8945 8.7695-6.2891 0-4.0625-3.9258-4.9219-7.4805-5.293-2.3828-0.25391-7.5-0.23438-7.5-2.793 0-2.4414 3.6914-3.3398 6.1133-3.3398 2.5391 0 4.5508 0.95703 5.4883 2.7148 0.21484 0.42969 0.78125 0.76172 1.25 0.76172 0.78125 0 1.4258-0.625 1.4258-1.4062 0-0.19531-0.0781-0.50781-0.17578-0.68359-1.3867-2.5977-4.4922-4.2188-7.9688-4.2188z"/>
 </g>
</svg>
