<?xml version="1.0" encoding="UTF-8" standalone="no"?>
<!-- Created with Inkscape (http://www.inkscape.org/) -->

<svg
   width="210mm"
   height="297mm"
   viewBox="0 0 210 297"
   version="1.1"
   id="svg5"
   inkscape:version="1.1.2 (0a00cf5339, 2022-02-04)"
   sodipodi:docname="greenways-logo.svg"
   xmlns:inkscape="http://www.inkscape.org/namespaces/inkscape"
   xmlns:sodipodi="http://sodipodi.sourceforge.net/DTD/sodipodi-0.dtd"
   xmlns="http://www.w3.org/2000/svg"
   xmlns:svg="http://www.w3.org/2000/svg">
  <sodipodi:namedview
     id="namedview7"
     pagecolor="#ffffff"
     bordercolor="#666666"
     borderopacity="1.0"
     inkscape:pageshadow="2"
     inkscape:pageopacity="0.0"
     inkscape:pagecheckerboard="0"
     inkscape:document-units="mm"
     showgrid="false"
     inkscape:zoom="0.5499273"
     inkscape:cx="-449.15028"
     inkscape:cy="259.12516"
     inkscape:window-width="2186"
     inkscape:window-height="1440"
     inkscape:window-x="0"
     inkscape:window-y="0"
     inkscape:window-maximized="1"
     inkscape:current-layer="layer1" />
  <defs
     id="defs2">
    <rect
       x="-416.07772"
       y="632.34211"
       width="264.09031"
       height="73.525338"
       id="rect11418" />
  </defs>
  <g
     inkscape:label="Layer 1"
     inkscape:groupmode="layer"
     id="layer1">
    <g
       id="g27339"
       transform="translate(156.93106,-76.310809)">
      <g
         id="g27332">
        <path
           style="fill:#95c11f;fill-opacity:1;fill-rule:evenodd"
           id="path2849"
           sodipodi:type="arc"
           sodipodi:cx="-49.71743"
           sodipodi:cy="135.90678"
           sodipodi:rx="31.288578"
           sodipodi:ry="31.381609"
           sodipodi:start="0"
           sodipodi:end="6.2743063"
           sodipodi:arc-type="arc"
           d="m -18.428852,135.90678 a 31.288578,31.381609 0 0 1 -31.219125,31.38154 31.288578,31.381609 0 0 1 -31.357723,-31.24222 31.288578,31.381609 0 0 1 31.079913,-31.52023 31.288578,31.381609 0 0 1 31.495702,31.10228"
           sodipodi:open="true" />
        <path
           style="fill:#ffffff;stroke-width:0.0846667"
           d="m -47.035531,154.4362 c 1.220715,-1.74208 -0.915222,-4.08214 -0.729197,-6.10653 -0.459933,-3.62739 -0.306777,-7.89217 2.454117,-10.63376 1.716609,-1.9403 2.823812,-4.32686 3.853672,-6.66802 2.004381,-1.45131 4.524291,-1.82553 6.928564,-2.03345 2.084392,-1.32731 -0.814855,-2.72546 -2.224022,-1.91645 -1.314651,-0.21989 -3.606061,1.47777 -4.205522,0.7446 0.174006,-2.43447 0.341474,-4.92922 -0.07089,-7.34306 -1.890199,-1.98482 -2.281739,1.65103 -1.89311,3.00491 -0.0018,3.31852 -0.140706,6.83137 -1.947658,9.73308 -0.524895,1.15787 -1.235973,2.41846 -1.66446,0.51605 -1.068033,-1.8485 -2.852126,-3.34621 -4.919056,-3.91167 -2.317052,0.48809 -0.274728,2.53925 1.057153,2.82152 1.485559,0.98293 2.631596,2.7819 2.628633,4.54665 -2.98188,4.22852 -2.749555,9.83676 -1.461747,14.62778 0.381656,0.9974 0.535242,3.43411 2.193521,2.61835 z m -0.85408,0.0488 c -1.374376,-1.33455 -1.353991,-3.56989 -1.834433,-5.35262 -0.70151,-4.0498 -0.381633,-8.57354 2.113113,-11.9868 -0.224818,-2.50296 -2.06521,-4.55863 -4.354951,-5.46221 -1.605054,-1.44343 1.172563,-2.39151 2.126146,-1.11539 1.838883,0.93901 3.047349,2.78078 3.927981,4.48691 1.745609,-2.38389 2.851822,-5.25562 2.968761,-8.22722 0.231023,-2.03008 0.0238,-4.07137 0.06449,-6.10231 1.009585,-2.0661 2.503286,0.53943 1.957164,1.8523 0.03037,1.91663 -0.01049,3.83923 -0.114309,5.74825 2.081087,-0.7343 4.335685,-1.46718 6.584257,-1.21716 1.851767,1.67779 -1.380314,2.16221 -2.585481,2.10078 -1.987414,0.45571 -4.701788,0.94851 -5.1852,3.30306 -1.04591,2.35785 -2.467492,4.52248 -4.225056,6.40743 -2.070668,3.46316 -1.875305,7.7955 -0.975252,11.59564 0.02826,1.21403 1.997047,4.09587 -0.467228,3.96934 z m 0.96835,-0.36314 c 0.246189,-2.28161 -1.248529,-4.56795 -1.177801,-6.9473 -0.319949,-3.52444 0.231731,-7.48914 2.986842,-9.99077 1.585932,-1.87303 2.481789,-4.20366 3.578865,-6.35061 2.041935,-1.44185 4.572014,-1.81694 6.995271,-2.05436 1.706671,-1.50177 -1.237572,-2.02326 -2.397079,-1.47272 -1.359842,-0.14973 -3.454536,1.47432 -4.240823,0.82153 0.187089,-2.50241 0.375671,-5.04759 -0.0226,-7.53666 -1.854343,-1.71732 -1.691825,1.75231 -1.544047,2.91471 0.04536,3.37866 -0.166917,6.92602 -1.992327,9.87753 -0.446143,1.0255 -1.428889,2.76147 -1.824791,0.72961 -0.983719,-1.95654 -2.808179,-3.48596 -4.897731,-4.12166 -2.486734,1.17359 1.205514,2.24262 2.032533,3.19442 1.423828,1.34258 2.611067,3.75108 1.001939,5.40046 -2.205912,4.46876 -1.694281,9.75866 -0.28098,14.38765 0.161542,0.875 0.832802,1.96535 1.782729,1.14817 z m -5.413259,0.0586 c 1.041043,-1.87019 1.1831,-4.11753 1.534988,-6.20252 0.504154,-3.97565 -0.04069,-8.14508 -2.072054,-11.64681 -0.902563,-1.89162 -1.675603,-3.86 -2.128268,-5.91003 1.532272,-1.21764 3.166696,-2.3807 4.445002,-3.90244 2.096457,-2.3281 3.793676,-5.18417 4.273911,-8.31012 -0.766029,-2.42149 -2.640083,0.15391 -2.625935,1.61258 -1.190976,3.32552 -3.631613,6.07382 -6.446058,8.13816 -0.496824,-3.05719 0.316081,-6.13934 1.159661,-9.06097 -0.374453,-2.22431 -2.715973,-0.50158 -2.52101,1.07459 -1.461201,4.74461 -1.060997,9.90712 0.695788,14.51461 0.707043,1.74426 -0.401707,-1.48025 -0.551,-1.96545 -1.39435,-4.60162 -1.285689,-9.70264 0.532164,-14.16934 1.543409,-1.54797 2.214468,1.12722 1.290343,2.21827 -0.651443,2.41096 -1.116077,4.99618 -0.656422,7.47296 3.479233,-2.36618 6.193476,-5.95976 7.195392,-10.08382 1.225419,-1.9581 2.527614,0.84704 1.433607,2.03628 -1.393827,4.23992 -4.505507,7.70965 -8.141147,10.19593 -0.158901,1.82955 1.031855,3.82649 1.70392,5.60664 1.402924,2.62343 2.499467,5.48491 2.454045,8.5053 0.05262,3.26274 -0.320514,6.60402 -1.485636,9.66366 -2.091451,1.44107 -1.759035,-1.86424 -1.140149,-3.07062 0.838399,-3.95021 1.154188,-8.29202 -0.554669,-12.06228 -2.539765,-1.64793 -5.058485,-3.48008 -6.794135,-6.01858 -1.002021,-1.68103 -2.026796,-3.61868 -4.183596,-3.90416 -1.510735,0.29389 -3.728464,-1.63477 -1.350385,-2.20453 1.174888,-0.0843 3.524798,1.3244 2.490901,-0.84753 -0.771673,-1.20344 0.08246,-4.04139 1.577036,-2.3236 0.517094,4.35046 2.601177,8.54302 6.030557,11.32598 -0.848193,-0.87032 -3.195653,-3.15808 -3.965906,-5.01792 -1.072503,-1.93306 -1.667085,-4.0881 -1.953128,-6.2664 -1.298302,-1.92943 -2.755139,0.76452 -1.812642,2.11024 1.360118,2.95608 -2.723758,-0.4035 -3.474616,1.63288 -0.118703,2.25527 3.258541,1.15088 4.411481,2.52763 1.421095,1.37054 2.092023,3.34556 3.539789,4.71834 1.51108,1.77703 3.544039,2.97905 5.397518,4.32107 1.621326,3.29885 1.283419,7.14452 0.833557,10.67766 0.117456,1.52397 -2.060714,4.32771 0.209312,4.89044 l 0.351582,-0.0498 0.29621,-0.22629 z m 9.273679,0.15105 c 1.252698,-1.91987 -1.491301,-4.22917 -1.043153,-6.50353 -0.445775,-1.9801 0.729463,-3.82707 2.632609,-4.41664 2.771231,-1.10215 6.248205,0.54816 7.177665,3.38406 1.824617,1.9084 2.513831,-1.65234 0.993379,-2.6553 -1.878465,-2.68689 -5.533373,-3.78921 -8.64226,-2.92423 2.558767,-3.36188 7.18829,-4.9996 11.257734,-3.75469 2.299547,0.24998 1.146113,-2.76047 -0.669682,-2.34456 -6.404263,-1.28743 -13.164254,3.26558 -14.656694,9.56765 -0.620514,3.1517 -0.07487,6.53894 1.555777,9.31197 0.276748,0.4759 0.930893,0.58459 1.394625,0.33527 z m -1.06282,-0.1128 c -1.659141,-2.35587 -2.255746,-5.42588 -1.990232,-8.27949 0.75329,-7.11876 8.583862,-12.49706 15.495272,-10.55726 2.32025,0.32037 0.652113,3.07186 -1.039242,1.7696 -3.898896,-0.82914 -8.104193,0.99847 -10.452906,4.1458 2.24286,-0.51318 4.737666,-0.3182 6.725055,0.96252 1.418546,0.9845 2.797721,2.46321 2.95171,4.25192 -1.670434,2.27394 -2.269565,-1.80033 -3.78473,-2.43045 -2.150825,-1.5435 -5.390519,-1.49216 -7.220907,0.55679 -1.467014,1.72848 -0.613639,4.34964 -0.136994,6.32354 0.40826,1.0548 2.034918,3.94313 -0.547026,3.25703 z m 0.9631,-0.0487 c 0.936454,-1.8862 -1.539353,-4.12559 -1.139804,-6.35825 -0.436792,-2.02327 0.779824,-3.87258 2.682213,-4.55515 2.888162,-1.16479 6.548874,0.50601 7.510991,3.49651 1.712942,1.43953 1.922386,-1.55863 0.736326,-2.38727 -1.812544,-2.73066 -5.542897,-3.84902 -8.630206,-2.90589 -0.121615,-1.05963 2.45353,-2.83525 3.801935,-3.52373 2.363248,-1.14959 5.147586,-1.43301 7.663109,-0.62843 2.331947,-0.41216 -0.122826,-2.49442 -1.525243,-2.11101 -6.854213,-0.97544 -13.905906,4.76163 -14.019617,11.74675 -0.0011,2.47944 0.580371,5.07848 1.96318,7.14892 0.25737,0.23623 0.663293,0.24983 0.957116,0.0775 z m -9.404072,-0.0115 c 0.905156,-1.33601 0.989194,-3.08982 1.34867,-4.64566 0.700988,-4.28447 0.565224,-8.92532 -1.667496,-12.77078 -0.945495,-2.08294 -2.019884,-4.23298 -2.258286,-6.51994 4.132791,-2.7604 7.653652,-6.85953 8.662644,-11.83161 -0.08296,-1.96624 -2.27827,-0.52617 -2.02074,0.87167 -1.182897,3.64598 -3.760856,6.78586 -6.908547,8.91768 -0.506512,-1.83235 -0.170466,-4.08529 0.13528,-6.02799 0.08227,-1.21755 2.065678,-4.55445 -0.483025,-3.96487 -1.054669,1.85964 -1.359231,4.1068 -1.585828,6.21953 -0.313197,3.71489 0.436752,7.4411 1.832349,10.87758 -1.557155,-0.68225 -2.757348,-2.31266 -3.802678,-3.69725 -1.66014,-2.32782 -2.574352,-5.09752 -2.964546,-7.90984 -1.345179,-1.77904 -2.146512,1.15004 -1.374819,2.26666 1.529116,3.24499 -4.019912,-1.02595 -3.505683,2.08857 1.370617,1.00327 3.628769,0.61285 4.834647,2.11885 1.763694,3.08698 4.109161,5.91898 7.208203,7.74309 1.980244,0.76869 2.039991,3.2145 2.397297,4.99832 0.379277,3.5822 -0.276836,7.17173 -1.167143,10.62427 0.07781,0.54839 0.829327,1.01815 1.319701,0.64172 z m -3.788271,-0.16594 c 1.275836,-1.63007 1.548344,-3.92995 1.660899,-5.9632 -0.07103,-3.63073 -1.587732,-7.24182 -4.033292,-9.91362 -2.748976,-2.72507 -6.945385,-3.65865 -10.688256,-3.08359 -1.20542,0.41293 -0.464675,2.35598 0.680009,1.98648 3.488221,-0.16035 7.45369,0.7062 9.49794,3.80849 0.338706,0.97022 -2.407165,-0.30119 -3.358487,0.18735 -2.194767,0.30397 -4.390795,1.73766 -5.243913,3.82142 0.340747,2.3185 2.472333,0.37147 3.184886,-0.67884 2.052939,-1.68422 5.588291,-1.32581 7.196618,0.79728 1.123226,2.42145 0.523988,5.23366 -0.354327,7.63774 -0.468531,0.91655 0.551135,1.91475 1.457923,1.40049 z m -1.029409,-0.0832 c -1.157035,-1.33648 0.706445,-3.09305 0.544023,-4.69011 0.163667,-1.95687 0.181985,-4.53979 -1.903466,-5.5144 -2.309795,-1.24713 -5.534578,-0.79956 -7.023655,1.48831 -1.141905,1.94684 -3.020936,-0.60141 -1.23652,-1.5962 1.755294,-2.21643 4.823577,-3.08302 7.511543,-2.29135 1.488399,-0.0195 -1.377002,-2.45379 -2.279006,-2.94742 -2.290516,-1.42834 -5.0694,-1.38271 -7.659463,-1.50124 -1.805177,-2.11704 2.266918,-2.16477 3.581612,-1.81118 3.601768,0.2844 7.079756,2.25358 8.831011,5.47069 2.153926,3.52899 2.956896,8.00064 1.424195,11.92745 -0.261381,0.7925 -0.710332,2.02094 -1.790274,1.46545 z m 0.936658,-0.082 c 1.105505,-1.52965 1.422181,-3.55936 1.500305,-5.42111 0.190192,-3.52335 -1.340119,-6.95913 -3.468828,-9.68888 -2.652261,-3.04703 -6.968851,-3.97808 -10.843202,-3.5258 -1.805322,1.36688 1.019373,1.99585 2.149494,1.65415 3.288436,0.0631 6.98779,1.48274 8.405176,4.64544 -1.577945,-0.16619 -3.319783,-0.6033 -4.922152,-0.057 -1.700466,0.61399 -3.540683,1.79542 -4.034261,3.62181 1.395698,2.14612 2.634998,-1.88883 4.421953,-1.919 2.388242,-0.69417 5.869845,0.15383 6.402439,2.94096 0.584744,2.38337 -0.193137,4.75873 -0.876214,7.01573 -0.04277,0.66293 0.71254,1.072 1.26529,0.73371 z"
           id="path2192"
           sodipodi:nodetypes="ssssssssssssscsssssssssssscsssssscssscsssscssssssccscscssssssssscsscccssscscsssccscsscsssssssssssscssccsssssssssscsssssssssssssssscssssssssssssssscssssssssssssssssssssssssssssccscssssscsscssssssssssscssscsscsssssssccssssscsscsssssssssssccsscssccssssssssssssssssssssssssccsssscsssscssssssssssssssssssssssssssscsssccssssscsssssscssssssscssscsscscsscsccsssssscsscsssssssssssss" />
      </g>
      <text
         xml:space="preserve"
         transform="matrix(0.5114396,0,0,0.5114396,107.03781,-144.65787)"
         id="text11416"
         style="font-style:normal;font-variant:normal;font-weight:normal;font-stretch:normal;font-size:40px;line-height:1.25;font-family:Manjari;-inkscape-font-specification:'Manjari, Normal';font-variant-ligatures:normal;font-variant-caps:normal;font-variant-numeric:normal;font-variant-east-asian:normal;white-space:pre;shape-inside:url(#rect11418);fill:#000000;fill-opacity:1;stroke:none"><tspan
           x="-416.07812"
           y="664.00846"
           id="tspan27488">Green Ways</tspan></text>
    </g>
  </g>
</svg>
